<mxfile host="app.diagrams.net" agent="Mozilla/5.0 (Windows NT 10.0; Win64; x64) AppleWebKit/537.36 (KHTML, like Gecko) Chrome/131.0.0.0 Safari/537.36" version="25.0.1">
  <diagram name="Страница — 1" id="nnURqnsPZ7kOj7IKDL6H">
    <mxGraphModel dx="1877" dy="1699" grid="1" gridSize="10" guides="1" tooltips="1" connect="1" arrows="1" fold="1" page="1" pageScale="1" pageWidth="827" pageHeight="1169" math="0" shadow="0">
      <root>
        <mxCell id="0" />
        <mxCell id="1" parent="0" />
        <mxCell id="jX7xDOMbAJI4A2eP9L53-35" style="edgeStyle=orthogonalEdgeStyle;rounded=0;orthogonalLoop=1;jettySize=auto;html=1;exitX=1;exitY=0.5;exitDx=0;exitDy=0;" parent="1" source="1GvkOFfXkZYTMTRJ72ga-2" edge="1">
          <mxGeometry relative="1" as="geometry">
            <mxPoint x="430" y="330" as="targetPoint" />
          </mxGeometry>
        </mxCell>
        <mxCell id="1GvkOFfXkZYTMTRJ72ga-2" value="" style="rounded=0;whiteSpace=wrap;html=1;" parent="1" vertex="1">
          <mxGeometry x="60" y="80" width="300" height="540" as="geometry" />
        </mxCell>
        <mxCell id="jX7xDOMbAJI4A2eP9L53-1" value="" style="rounded=0;whiteSpace=wrap;html=1;" parent="1" vertex="1">
          <mxGeometry x="75" y="190" width="265" height="270" as="geometry" />
        </mxCell>
        <mxCell id="1GvkOFfXkZYTMTRJ72ga-44" value="" style="rounded=0;whiteSpace=wrap;html=1;" parent="1" vertex="1">
          <mxGeometry x="1480" y="85" width="300" height="500" as="geometry" />
        </mxCell>
        <mxCell id="1GvkOFfXkZYTMTRJ72ga-4" value="" style="ellipse;whiteSpace=wrap;html=1;aspect=fixed;" parent="1" vertex="1">
          <mxGeometry x="280" y="90" width="70" height="70" as="geometry" />
        </mxCell>
        <mxCell id="1GvkOFfXkZYTMTRJ72ga-5" value="Аватар пользо-вателя" style="text;html=1;align=center;verticalAlign=middle;whiteSpace=wrap;rounded=0;" parent="1" vertex="1">
          <mxGeometry x="287" y="110" width="60" height="30" as="geometry" />
        </mxCell>
        <mxCell id="1GvkOFfXkZYTMTRJ72ga-7" value="" style="whiteSpace=wrap;html=1;aspect=fixed;" parent="1" vertex="1">
          <mxGeometry x="90" y="210" width="110" height="110" as="geometry" />
        </mxCell>
        <mxCell id="1GvkOFfXkZYTMTRJ72ga-8" value="Аватар пользователя2" style="text;html=1;align=center;verticalAlign=middle;whiteSpace=wrap;rounded=0;" parent="1" vertex="1">
          <mxGeometry x="115" y="250" width="60" height="30" as="geometry" />
        </mxCell>
        <mxCell id="1GvkOFfXkZYTMTRJ72ga-10" value="Имя/Никнейм пользователя" style="rounded=0;whiteSpace=wrap;html=1;" parent="1" vertex="1">
          <mxGeometry x="210" y="210" width="120" height="30" as="geometry" />
        </mxCell>
        <mxCell id="1GvkOFfXkZYTMTRJ72ga-11" value="Флаг" style="rounded=0;whiteSpace=wrap;html=1;" parent="1" vertex="1">
          <mxGeometry x="210" y="250" width="50" height="30" as="geometry" />
        </mxCell>
        <mxCell id="1GvkOFfXkZYTMTRJ72ga-13" value="" style="rounded=0;whiteSpace=wrap;html=1;" parent="1" vertex="1">
          <mxGeometry x="270" y="250" width="60" height="30" as="geometry" />
        </mxCell>
        <mxCell id="1GvkOFfXkZYTMTRJ72ga-14" value="" style="endArrow=none;dashed=1;html=1;dashPattern=1 3;strokeWidth=2;rounded=0;" parent="1" edge="1">
          <mxGeometry width="50" height="50" relative="1" as="geometry">
            <mxPoint x="330" y="250" as="sourcePoint" />
            <mxPoint x="380" y="200" as="targetPoint" />
          </mxGeometry>
        </mxCell>
        <mxCell id="1GvkOFfXkZYTMTRJ72ga-15" value="Уровень владения языком" style="text;html=1;align=center;verticalAlign=middle;whiteSpace=wrap;rounded=0;" parent="1" vertex="1">
          <mxGeometry x="370" y="170" width="60" height="30" as="geometry" />
        </mxCell>
        <mxCell id="1GvkOFfXkZYTMTRJ72ga-16" value="" style="rounded=0;whiteSpace=wrap;html=1;" parent="1" vertex="1">
          <mxGeometry x="210" y="290" width="120" height="20" as="geometry" />
        </mxCell>
        <mxCell id="1GvkOFfXkZYTMTRJ72ga-17" value="Название страны" style="text;html=1;align=center;verticalAlign=middle;whiteSpace=wrap;rounded=0;" parent="1" vertex="1">
          <mxGeometry x="205" y="285" width="130" height="30" as="geometry" />
        </mxCell>
        <mxCell id="1GvkOFfXkZYTMTRJ72ga-18" value="" style="rounded=0;whiteSpace=wrap;html=1;" parent="1" vertex="1">
          <mxGeometry x="90" y="330" width="240" height="60" as="geometry" />
        </mxCell>
        <mxCell id="1GvkOFfXkZYTMTRJ72ga-19" value="Раздел &quot;О себе&quot;" style="text;html=1;align=center;verticalAlign=middle;whiteSpace=wrap;rounded=0;" parent="1" vertex="1">
          <mxGeometry x="130" y="344" width="160" height="30" as="geometry" />
        </mxCell>
        <mxCell id="1GvkOFfXkZYTMTRJ72ga-20" value="" style="rounded=1;whiteSpace=wrap;html=1;" parent="1" vertex="1">
          <mxGeometry x="90" y="410" width="50" height="15" as="geometry" />
        </mxCell>
        <mxCell id="1GvkOFfXkZYTMTRJ72ga-21" value="" style="rounded=1;whiteSpace=wrap;html=1;" parent="1" vertex="1">
          <mxGeometry x="150" y="410" width="50" height="15" as="geometry" />
        </mxCell>
        <mxCell id="1GvkOFfXkZYTMTRJ72ga-23" value="" style="rounded=1;whiteSpace=wrap;html=1;" parent="1" vertex="1">
          <mxGeometry x="210" y="410" width="50" height="15" as="geometry" />
        </mxCell>
        <mxCell id="1GvkOFfXkZYTMTRJ72ga-24" value="" style="endArrow=none;dashed=1;html=1;dashPattern=1 3;strokeWidth=2;rounded=0;" parent="1" target="1GvkOFfXkZYTMTRJ72ga-25" edge="1">
          <mxGeometry width="50" height="50" relative="1" as="geometry">
            <mxPoint x="260" y="420" as="sourcePoint" />
            <mxPoint x="390" y="420" as="targetPoint" />
          </mxGeometry>
        </mxCell>
        <mxCell id="1GvkOFfXkZYTMTRJ72ga-25" value="Теги по интересам" style="text;html=1;align=center;verticalAlign=middle;whiteSpace=wrap;rounded=0;" parent="1" vertex="1">
          <mxGeometry x="370" y="390" width="60" height="30" as="geometry" />
        </mxCell>
        <mxCell id="1GvkOFfXkZYTMTRJ72ga-26" value="" style="ellipse;whiteSpace=wrap;html=1;aspect=fixed;" parent="1" vertex="1">
          <mxGeometry x="260" y="470" width="80" height="80" as="geometry" />
        </mxCell>
        <mxCell id="jX7xDOMbAJI4A2eP9L53-44" style="edgeStyle=orthogonalEdgeStyle;rounded=0;orthogonalLoop=1;jettySize=auto;html=1;exitX=1;exitY=0.25;exitDx=0;exitDy=0;" parent="1" source="1GvkOFfXkZYTMTRJ72ga-27" edge="1">
          <mxGeometry relative="1" as="geometry">
            <mxPoint x="480" y="600" as="targetPoint" />
          </mxGeometry>
        </mxCell>
        <mxCell id="1GvkOFfXkZYTMTRJ72ga-27" value="Лайк" style="text;html=1;align=center;verticalAlign=middle;whiteSpace=wrap;rounded=0;" parent="1" vertex="1">
          <mxGeometry x="270" y="495" width="60" height="30" as="geometry" />
        </mxCell>
        <mxCell id="1GvkOFfXkZYTMTRJ72ga-28" value="" style="ellipse;whiteSpace=wrap;html=1;aspect=fixed;" parent="1" vertex="1">
          <mxGeometry x="75" y="470" width="80" height="80" as="geometry" />
        </mxCell>
        <mxCell id="jX7xDOMbAJI4A2eP9L53-46" style="edgeStyle=orthogonalEdgeStyle;rounded=0;orthogonalLoop=1;jettySize=auto;html=1;exitX=0;exitY=0.5;exitDx=0;exitDy=0;" parent="1" source="1GvkOFfXkZYTMTRJ72ga-29" edge="1">
          <mxGeometry relative="1" as="geometry">
            <mxPoint x="40" y="509.66666666666697" as="targetPoint" />
          </mxGeometry>
        </mxCell>
        <mxCell id="1GvkOFfXkZYTMTRJ72ga-29" value="Дизлайк" style="text;html=1;align=center;verticalAlign=middle;whiteSpace=wrap;rounded=0;" parent="1" vertex="1">
          <mxGeometry x="85" y="495" width="60" height="30" as="geometry" />
        </mxCell>
        <mxCell id="jX7xDOMbAJI4A2eP9L53-22" style="edgeStyle=orthogonalEdgeStyle;rounded=0;orthogonalLoop=1;jettySize=auto;html=1;exitX=1;exitY=0.75;exitDx=0;exitDy=0;entryX=0;entryY=0.75;entryDx=0;entryDy=0;" parent="1" source="1GvkOFfXkZYTMTRJ72ga-30" target="1GvkOFfXkZYTMTRJ72ga-179" edge="1">
          <mxGeometry relative="1" as="geometry">
            <Array as="points">
              <mxPoint x="1040" y="455" />
              <mxPoint x="1040" y="660" />
              <mxPoint x="1840" y="660" />
              <mxPoint x="1840" y="470" />
            </Array>
          </mxGeometry>
        </mxCell>
        <mxCell id="1GvkOFfXkZYTMTRJ72ga-30" value="" style="rounded=0;whiteSpace=wrap;html=1;" parent="1" vertex="1">
          <mxGeometry x="660" y="80" width="300" height="500" as="geometry" />
        </mxCell>
        <mxCell id="1GvkOFfXkZYTMTRJ72ga-31" value="" style="rounded=1;whiteSpace=wrap;html=1;" parent="1" vertex="1">
          <mxGeometry x="680" y="530" width="220" height="30" as="geometry" />
        </mxCell>
        <mxCell id="1GvkOFfXkZYTMTRJ72ga-32" value="" style="ellipse;whiteSpace=wrap;html=1;aspect=fixed;" parent="1" vertex="1">
          <mxGeometry x="910" y="525" width="40" height="40" as="geometry" />
        </mxCell>
        <mxCell id="1GvkOFfXkZYTMTRJ72ga-34" value="" style="rounded=0;whiteSpace=wrap;html=1;" parent="1" vertex="1">
          <mxGeometry x="670" y="140" width="280" height="380" as="geometry" />
        </mxCell>
        <mxCell id="1GvkOFfXkZYTMTRJ72ga-35" value="&lt;font style=&quot;font-size: 18px;&quot;&gt;Поле с сообщениями&lt;/font&gt;" style="text;html=1;align=center;verticalAlign=middle;whiteSpace=wrap;rounded=0;" parent="1" vertex="1">
          <mxGeometry x="720" y="170" width="180" height="110" as="geometry" />
        </mxCell>
        <mxCell id="1GvkOFfXkZYTMTRJ72ga-36" value="" style="ellipse;whiteSpace=wrap;html=1;aspect=fixed;" parent="1" vertex="1">
          <mxGeometry x="698" y="90" width="40" height="40" as="geometry" />
        </mxCell>
        <mxCell id="1GvkOFfXkZYTMTRJ72ga-37" value="" style="endArrow=classic;html=1;rounded=0;" parent="1" edge="1">
          <mxGeometry width="50" height="50" relative="1" as="geometry">
            <mxPoint x="690" y="112" as="sourcePoint" />
            <mxPoint x="669" y="112" as="targetPoint" />
          </mxGeometry>
        </mxCell>
        <mxCell id="1GvkOFfXkZYTMTRJ72ga-38" value="" style="rounded=0;whiteSpace=wrap;html=1;" parent="1" vertex="1">
          <mxGeometry x="750" y="95" width="100" height="30" as="geometry" />
        </mxCell>
        <mxCell id="1GvkOFfXkZYTMTRJ72ga-40" value="Имя/аватар собеседника" style="text;html=1;align=center;verticalAlign=middle;whiteSpace=wrap;rounded=0;" parent="1" vertex="1">
          <mxGeometry x="750" y="95" width="110" height="30" as="geometry" />
        </mxCell>
        <mxCell id="1GvkOFfXkZYTMTRJ72ga-41" value="Текст сообщения" style="rounded=1;whiteSpace=wrap;html=1;" parent="1" vertex="1">
          <mxGeometry x="810" y="435" width="120" height="60" as="geometry" />
        </mxCell>
        <mxCell id="1GvkOFfXkZYTMTRJ72ga-42" value="" style="rounded=1;whiteSpace=wrap;html=1;" parent="1" vertex="1">
          <mxGeometry x="690" y="360" width="120" height="60" as="geometry" />
        </mxCell>
        <mxCell id="1GvkOFfXkZYTMTRJ72ga-43" value="Текст сообщения" style="text;html=1;align=center;verticalAlign=middle;whiteSpace=wrap;rounded=0;" parent="1" vertex="1">
          <mxGeometry x="698" y="375" width="100" height="30" as="geometry" />
        </mxCell>
        <mxCell id="1GvkOFfXkZYTMTRJ72ga-76" value="" style="rounded=0;whiteSpace=wrap;html=1;" parent="1" vertex="1">
          <mxGeometry x="1480" y="145" width="300" height="60" as="geometry" />
        </mxCell>
        <mxCell id="1GvkOFfXkZYTMTRJ72ga-77" value="" style="ellipse;whiteSpace=wrap;html=1;aspect=fixed;" parent="1" vertex="1">
          <mxGeometry x="1490" y="155" width="40" height="40" as="geometry" />
        </mxCell>
        <mxCell id="1GvkOFfXkZYTMTRJ72ga-78" value="Имя/аватар собеседника" style="text;html=1;align=center;verticalAlign=middle;whiteSpace=wrap;rounded=0;" parent="1" vertex="1">
          <mxGeometry x="1540" y="145" width="180" height="30" as="geometry" />
        </mxCell>
        <mxCell id="1GvkOFfXkZYTMTRJ72ga-79" value="Последнее сообщение" style="text;html=1;align=center;verticalAlign=middle;whiteSpace=wrap;rounded=0;" parent="1" vertex="1">
          <mxGeometry x="1540" y="165" width="170" height="30" as="geometry" />
        </mxCell>
        <mxCell id="1GvkOFfXkZYTMTRJ72ga-80" value="" style="rounded=0;whiteSpace=wrap;html=1;" parent="1" vertex="1">
          <mxGeometry x="1480" y="205" width="300" height="60" as="geometry" />
        </mxCell>
        <mxCell id="1GvkOFfXkZYTMTRJ72ga-81" value="" style="ellipse;whiteSpace=wrap;html=1;aspect=fixed;" parent="1" vertex="1">
          <mxGeometry x="1490" y="215" width="40" height="40" as="geometry" />
        </mxCell>
        <mxCell id="1GvkOFfXkZYTMTRJ72ga-82" value="Имя/аватар собеседника" style="text;html=1;align=center;verticalAlign=middle;whiteSpace=wrap;rounded=0;" parent="1" vertex="1">
          <mxGeometry x="1540" y="205" width="180" height="30" as="geometry" />
        </mxCell>
        <mxCell id="1GvkOFfXkZYTMTRJ72ga-83" value="Последнее сообщение" style="text;html=1;align=center;verticalAlign=middle;whiteSpace=wrap;rounded=0;" parent="1" vertex="1">
          <mxGeometry x="1540" y="225" width="170" height="30" as="geometry" />
        </mxCell>
        <mxCell id="1GvkOFfXkZYTMTRJ72ga-84" value="" style="rounded=0;whiteSpace=wrap;html=1;" parent="1" vertex="1">
          <mxGeometry x="1480" y="265" width="300" height="60" as="geometry" />
        </mxCell>
        <mxCell id="1GvkOFfXkZYTMTRJ72ga-85" value="" style="ellipse;whiteSpace=wrap;html=1;aspect=fixed;" parent="1" vertex="1">
          <mxGeometry x="1490" y="275" width="40" height="40" as="geometry" />
        </mxCell>
        <mxCell id="1GvkOFfXkZYTMTRJ72ga-86" value="Имя/аватар собеседника" style="text;html=1;align=center;verticalAlign=middle;whiteSpace=wrap;rounded=0;" parent="1" vertex="1">
          <mxGeometry x="1540" y="265" width="180" height="30" as="geometry" />
        </mxCell>
        <mxCell id="1GvkOFfXkZYTMTRJ72ga-87" value="Последнее сообщение" style="text;html=1;align=center;verticalAlign=middle;whiteSpace=wrap;rounded=0;" parent="1" vertex="1">
          <mxGeometry x="1540" y="285" width="170" height="30" as="geometry" />
        </mxCell>
        <mxCell id="1GvkOFfXkZYTMTRJ72ga-88" value="" style="rounded=0;whiteSpace=wrap;html=1;" parent="1" vertex="1">
          <mxGeometry x="1480" y="325" width="300" height="60" as="geometry" />
        </mxCell>
        <mxCell id="1GvkOFfXkZYTMTRJ72ga-89" value="" style="ellipse;whiteSpace=wrap;html=1;aspect=fixed;" parent="1" vertex="1">
          <mxGeometry x="1490" y="335" width="40" height="40" as="geometry" />
        </mxCell>
        <mxCell id="1GvkOFfXkZYTMTRJ72ga-90" value="Имя/аватар собеседника" style="text;html=1;align=center;verticalAlign=middle;whiteSpace=wrap;rounded=0;" parent="1" vertex="1">
          <mxGeometry x="1540" y="325" width="180" height="30" as="geometry" />
        </mxCell>
        <mxCell id="1GvkOFfXkZYTMTRJ72ga-91" value="Последнее сообщение" style="text;html=1;align=center;verticalAlign=middle;whiteSpace=wrap;rounded=0;" parent="1" vertex="1">
          <mxGeometry x="1540" y="345" width="170" height="30" as="geometry" />
        </mxCell>
        <mxCell id="jX7xDOMbAJI4A2eP9L53-27" style="edgeStyle=orthogonalEdgeStyle;rounded=0;orthogonalLoop=1;jettySize=auto;html=1;exitX=0;exitY=0.5;exitDx=0;exitDy=0;" parent="1" source="1GvkOFfXkZYTMTRJ72ga-92" edge="1">
          <mxGeometry relative="1" as="geometry">
            <mxPoint x="1390" y="415" as="targetPoint" />
          </mxGeometry>
        </mxCell>
        <mxCell id="1GvkOFfXkZYTMTRJ72ga-92" value="" style="rounded=0;whiteSpace=wrap;html=1;" parent="1" vertex="1">
          <mxGeometry x="1480" y="385" width="300" height="60" as="geometry" />
        </mxCell>
        <mxCell id="1GvkOFfXkZYTMTRJ72ga-93" value="" style="ellipse;whiteSpace=wrap;html=1;aspect=fixed;" parent="1" vertex="1">
          <mxGeometry x="1490" y="395" width="40" height="40" as="geometry" />
        </mxCell>
        <mxCell id="1GvkOFfXkZYTMTRJ72ga-94" value="Имя/аватар собеседника" style="text;html=1;align=center;verticalAlign=middle;whiteSpace=wrap;rounded=0;" parent="1" vertex="1">
          <mxGeometry x="1540" y="385" width="180" height="30" as="geometry" />
        </mxCell>
        <mxCell id="1GvkOFfXkZYTMTRJ72ga-95" value="Последнее сообщение" style="text;html=1;align=center;verticalAlign=middle;whiteSpace=wrap;rounded=0;" parent="1" vertex="1">
          <mxGeometry x="1540" y="405" width="170" height="30" as="geometry" />
        </mxCell>
        <mxCell id="1GvkOFfXkZYTMTRJ72ga-96" value="" style="rounded=0;whiteSpace=wrap;html=1;" parent="1" vertex="1">
          <mxGeometry x="1480" y="440" width="300" height="60" as="geometry" />
        </mxCell>
        <mxCell id="1GvkOFfXkZYTMTRJ72ga-97" value="" style="ellipse;whiteSpace=wrap;html=1;aspect=fixed;" parent="1" vertex="1">
          <mxGeometry x="1490" y="450" width="40" height="40" as="geometry" />
        </mxCell>
        <mxCell id="1GvkOFfXkZYTMTRJ72ga-98" value="Имя/аватар собеседника" style="text;html=1;align=center;verticalAlign=middle;whiteSpace=wrap;rounded=0;" parent="1" vertex="1">
          <mxGeometry x="1540" y="440" width="180" height="30" as="geometry" />
        </mxCell>
        <mxCell id="1GvkOFfXkZYTMTRJ72ga-99" value="Последнее сообщение" style="text;html=1;align=center;verticalAlign=middle;whiteSpace=wrap;rounded=0;" parent="1" vertex="1">
          <mxGeometry x="1540" y="460" width="170" height="30" as="geometry" />
        </mxCell>
        <mxCell id="1GvkOFfXkZYTMTRJ72ga-100" value="" style="rounded=0;whiteSpace=wrap;html=1;" parent="1" vertex="1">
          <mxGeometry x="1480" y="500" width="300" height="60" as="geometry" />
        </mxCell>
        <mxCell id="1GvkOFfXkZYTMTRJ72ga-101" value="" style="ellipse;whiteSpace=wrap;html=1;aspect=fixed;" parent="1" vertex="1">
          <mxGeometry x="1490" y="510" width="40" height="40" as="geometry" />
        </mxCell>
        <mxCell id="1GvkOFfXkZYTMTRJ72ga-102" value="Имя/аватар собеседника" style="text;html=1;align=center;verticalAlign=middle;whiteSpace=wrap;rounded=0;" parent="1" vertex="1">
          <mxGeometry x="1540" y="500" width="180" height="30" as="geometry" />
        </mxCell>
        <mxCell id="1GvkOFfXkZYTMTRJ72ga-103" value="Последнее сообщение" style="text;html=1;align=center;verticalAlign=middle;whiteSpace=wrap;rounded=0;" parent="1" vertex="1">
          <mxGeometry x="1540" y="520" width="170" height="30" as="geometry" />
        </mxCell>
        <mxCell id="1GvkOFfXkZYTMTRJ72ga-104" value="" style="endArrow=classic;html=1;rounded=0;" parent="1" edge="1">
          <mxGeometry width="50" height="50" relative="1" as="geometry">
            <mxPoint x="1515" y="117" as="sourcePoint" />
            <mxPoint x="1494" y="117" as="targetPoint" />
          </mxGeometry>
        </mxCell>
        <mxCell id="1GvkOFfXkZYTMTRJ72ga-105" value="" style="rounded=0;whiteSpace=wrap;html=1;" parent="1" vertex="1">
          <mxGeometry x="1700" y="85" width="80" height="60" as="geometry" />
        </mxCell>
        <mxCell id="1GvkOFfXkZYTMTRJ72ga-106" value="Кнопка поиска чатов" style="text;html=1;align=center;verticalAlign=middle;whiteSpace=wrap;rounded=0;" parent="1" vertex="1">
          <mxGeometry x="1710" y="100" width="60" height="30" as="geometry" />
        </mxCell>
        <mxCell id="jX7xDOMbAJI4A2eP9L53-16" style="edgeStyle=orthogonalEdgeStyle;rounded=0;orthogonalLoop=1;jettySize=auto;html=1;exitX=1;exitY=0.75;exitDx=0;exitDy=0;" parent="1" source="1GvkOFfXkZYTMTRJ72ga-107" target="1GvkOFfXkZYTMTRJ72ga-128" edge="1">
          <mxGeometry relative="1" as="geometry">
            <Array as="points">
              <mxPoint x="990" y="1050" />
            </Array>
          </mxGeometry>
        </mxCell>
        <mxCell id="jX7xDOMbAJI4A2eP9L53-17" style="edgeStyle=orthogonalEdgeStyle;rounded=0;orthogonalLoop=1;jettySize=auto;html=1;exitX=0;exitY=0.5;exitDx=0;exitDy=0;entryX=1;entryY=0.5;entryDx=0;entryDy=0;" parent="1" source="1GvkOFfXkZYTMTRJ72ga-107" target="1GvkOFfXkZYTMTRJ72ga-209" edge="1">
          <mxGeometry relative="1" as="geometry" />
        </mxCell>
        <mxCell id="jX7xDOMbAJI4A2eP9L53-32" style="edgeStyle=orthogonalEdgeStyle;rounded=0;orthogonalLoop=1;jettySize=auto;html=1;exitX=1;exitY=0.25;exitDx=0;exitDy=0;" parent="1" source="1GvkOFfXkZYTMTRJ72ga-107" edge="1">
          <mxGeometry relative="1" as="geometry">
            <mxPoint x="1160" y="890" as="targetPoint" />
          </mxGeometry>
        </mxCell>
        <mxCell id="1GvkOFfXkZYTMTRJ72ga-107" value="" style="rounded=0;whiteSpace=wrap;html=1;" parent="1" vertex="1">
          <mxGeometry x="827" y="820" width="300" height="500" as="geometry" />
        </mxCell>
        <mxCell id="1GvkOFfXkZYTMTRJ72ga-108" value="" style="ellipse;whiteSpace=wrap;html=1;aspect=fixed;" parent="1" vertex="1">
          <mxGeometry x="852" y="850" width="80" height="80" as="geometry" />
        </mxCell>
        <mxCell id="1GvkOFfXkZYTMTRJ72ga-109" value="Аватар" style="text;html=1;align=center;verticalAlign=middle;whiteSpace=wrap;rounded=0;" parent="1" vertex="1">
          <mxGeometry x="862" y="875" width="60" height="30" as="geometry" />
        </mxCell>
        <mxCell id="1GvkOFfXkZYTMTRJ72ga-110" value="" style="rounded=0;whiteSpace=wrap;html=1;" parent="1" vertex="1">
          <mxGeometry x="972" y="860" width="135" height="60" as="geometry" />
        </mxCell>
        <mxCell id="1GvkOFfXkZYTMTRJ72ga-111" value="Имя пользователя" style="text;html=1;align=center;verticalAlign=middle;whiteSpace=wrap;rounded=0;" parent="1" vertex="1">
          <mxGeometry x="1002" y="875" width="60" height="30" as="geometry" />
        </mxCell>
        <mxCell id="1GvkOFfXkZYTMTRJ72ga-112" value="" style="rounded=0;whiteSpace=wrap;html=1;" parent="1" vertex="1">
          <mxGeometry x="847" y="950" width="260" height="30" as="geometry" />
        </mxCell>
        <mxCell id="1GvkOFfXkZYTMTRJ72ga-113" value="Привязанный email" style="text;html=1;align=center;verticalAlign=middle;whiteSpace=wrap;rounded=0;" parent="1" vertex="1">
          <mxGeometry x="837" y="949" width="180" height="30" as="geometry" />
        </mxCell>
        <mxCell id="1GvkOFfXkZYTMTRJ72ga-114" value="" style="rounded=0;whiteSpace=wrap;html=1;" parent="1" vertex="1">
          <mxGeometry x="1027" y="950" width="80" height="30" as="geometry" />
        </mxCell>
        <mxCell id="1GvkOFfXkZYTMTRJ72ga-115" value="Изменить" style="text;html=1;align=center;verticalAlign=middle;whiteSpace=wrap;rounded=0;" parent="1" vertex="1">
          <mxGeometry x="1023.5" y="949" width="87" height="30" as="geometry" />
        </mxCell>
        <mxCell id="1GvkOFfXkZYTMTRJ72ga-116" value="Изменить" style="rounded=0;whiteSpace=wrap;html=1;" parent="1" vertex="1">
          <mxGeometry x="887" y="905" width="60" height="30" as="geometry" />
        </mxCell>
        <mxCell id="1GvkOFfXkZYTMTRJ72ga-117" value="Изменить" style="rounded=0;whiteSpace=wrap;html=1;" parent="1" vertex="1">
          <mxGeometry x="1057" y="905" width="60" height="30" as="geometry" />
        </mxCell>
        <mxCell id="1GvkOFfXkZYTMTRJ72ga-122" value="" style="rounded=0;whiteSpace=wrap;html=1;" parent="1" vertex="1">
          <mxGeometry x="847" y="990" width="260" height="30" as="geometry" />
        </mxCell>
        <mxCell id="1GvkOFfXkZYTMTRJ72ga-123" value="Пароль (*****)" style="text;html=1;align=center;verticalAlign=middle;whiteSpace=wrap;rounded=0;" parent="1" vertex="1">
          <mxGeometry x="837" y="989" width="180" height="30" as="geometry" />
        </mxCell>
        <mxCell id="1GvkOFfXkZYTMTRJ72ga-124" value="" style="rounded=0;whiteSpace=wrap;html=1;" parent="1" vertex="1">
          <mxGeometry x="1027" y="990" width="80" height="30" as="geometry" />
        </mxCell>
        <mxCell id="1GvkOFfXkZYTMTRJ72ga-125" value="Изменить" style="text;html=1;align=center;verticalAlign=middle;whiteSpace=wrap;rounded=0;" parent="1" vertex="1">
          <mxGeometry x="1023.5" y="989" width="87" height="30" as="geometry" />
        </mxCell>
        <mxCell id="jX7xDOMbAJI4A2eP9L53-48" style="edgeStyle=orthogonalEdgeStyle;rounded=0;orthogonalLoop=1;jettySize=auto;html=1;exitX=1;exitY=0.5;exitDx=0;exitDy=0;" parent="1" source="1GvkOFfXkZYTMTRJ72ga-127" edge="1">
          <mxGeometry relative="1" as="geometry">
            <mxPoint x="1210" y="1200" as="targetPoint" />
          </mxGeometry>
        </mxCell>
        <mxCell id="1GvkOFfXkZYTMTRJ72ga-127" value="&lt;font style=&quot;font-size: 14px;&quot;&gt;Данные анкеты: родной язык,&lt;/font&gt;&lt;div style=&quot;font-size: 14px;&quot;&gt;&lt;font style=&quot;font-size: 14px;&quot;&gt;уровень владения языком&lt;br&gt;раздел &quot;О себе&quot;,&lt;/font&gt;&lt;/div&gt;&lt;div style=&quot;font-size: 14px;&quot;&gt;&lt;font style=&quot;font-size: 14px;&quot;&gt;Теги интересов&lt;/font&gt;&lt;/div&gt;" style="rounded=0;whiteSpace=wrap;html=1;" parent="1" vertex="1">
          <mxGeometry x="842" y="1070" width="265" height="230" as="geometry" />
        </mxCell>
        <mxCell id="jX7xDOMbAJI4A2eP9L53-37" style="edgeStyle=orthogonalEdgeStyle;rounded=0;orthogonalLoop=1;jettySize=auto;html=1;exitX=1;exitY=0.25;exitDx=0;exitDy=0;" parent="1" source="1GvkOFfXkZYTMTRJ72ga-128" edge="1">
          <mxGeometry relative="1" as="geometry">
            <mxPoint x="2010" y="940" as="targetPoint" />
          </mxGeometry>
        </mxCell>
        <mxCell id="1GvkOFfXkZYTMTRJ72ga-128" value="" style="rounded=0;whiteSpace=wrap;html=1;" parent="1" vertex="1">
          <mxGeometry x="1680" y="860" width="300" height="500" as="geometry" />
        </mxCell>
        <mxCell id="1GvkOFfXkZYTMTRJ72ga-129" value="" style="rounded=0;whiteSpace=wrap;html=1;" parent="1" vertex="1">
          <mxGeometry x="1717" y="890" width="233" height="60" as="geometry" />
        </mxCell>
        <mxCell id="1GvkOFfXkZYTMTRJ72ga-131" value="О себе" style="text;html=1;align=center;verticalAlign=middle;whiteSpace=wrap;rounded=0;" parent="1" vertex="1">
          <mxGeometry x="1748" y="905" width="60" height="30" as="geometry" />
        </mxCell>
        <mxCell id="1GvkOFfXkZYTMTRJ72ga-132" value="" style="rounded=0;whiteSpace=wrap;html=1;" parent="1" vertex="1">
          <mxGeometry x="1830" y="890" width="120" height="60" as="geometry" />
        </mxCell>
        <mxCell id="1GvkOFfXkZYTMTRJ72ga-133" value="Кнопка изменить" style="text;html=1;align=center;verticalAlign=middle;whiteSpace=wrap;rounded=0;" parent="1" vertex="1">
          <mxGeometry x="1860" y="905" width="60" height="30" as="geometry" />
        </mxCell>
        <mxCell id="1GvkOFfXkZYTMTRJ72ga-134" value="" style="rounded=0;whiteSpace=wrap;html=1;" parent="1" vertex="1">
          <mxGeometry x="1715" y="1060" width="233" height="60" as="geometry" />
        </mxCell>
        <mxCell id="1GvkOFfXkZYTMTRJ72ga-136" value="" style="rounded=0;whiteSpace=wrap;html=1;" parent="1" vertex="1">
          <mxGeometry x="1878" y="1060" width="70" height="60" as="geometry" />
        </mxCell>
        <mxCell id="1GvkOFfXkZYTMTRJ72ga-137" value="Кнопка изменить" style="text;html=1;align=center;verticalAlign=middle;whiteSpace=wrap;rounded=0;" parent="1" vertex="1">
          <mxGeometry x="1888" y="1075" width="45" height="30" as="geometry" />
        </mxCell>
        <mxCell id="1GvkOFfXkZYTMTRJ72ga-138" value="" style="rounded=0;whiteSpace=wrap;html=1;" parent="1" vertex="1">
          <mxGeometry x="1715" y="1145" width="233" height="60" as="geometry" />
        </mxCell>
        <mxCell id="1GvkOFfXkZYTMTRJ72ga-139" value="Список тэгов" style="text;html=1;align=center;verticalAlign=middle;whiteSpace=wrap;rounded=0;" parent="1" vertex="1">
          <mxGeometry x="1746" y="1160" width="60" height="30" as="geometry" />
        </mxCell>
        <mxCell id="1GvkOFfXkZYTMTRJ72ga-140" value="" style="rounded=0;whiteSpace=wrap;html=1;" parent="1" vertex="1">
          <mxGeometry x="1828" y="1145" width="120" height="60" as="geometry" />
        </mxCell>
        <mxCell id="1GvkOFfXkZYTMTRJ72ga-141" value="Кнопка изменить" style="text;html=1;align=center;verticalAlign=middle;whiteSpace=wrap;rounded=0;" parent="1" vertex="1">
          <mxGeometry x="1858" y="1160" width="60" height="30" as="geometry" />
        </mxCell>
        <mxCell id="1GvkOFfXkZYTMTRJ72ga-142" value="" style="rounded=0;whiteSpace=wrap;html=1;" parent="1" vertex="1">
          <mxGeometry x="1715" y="1060" width="83" height="60" as="geometry" />
        </mxCell>
        <mxCell id="1GvkOFfXkZYTMTRJ72ga-143" value="Язык" style="text;html=1;align=center;verticalAlign=middle;whiteSpace=wrap;rounded=0;" parent="1" vertex="1">
          <mxGeometry x="1726.5" y="1075" width="60" height="30" as="geometry" />
        </mxCell>
        <mxCell id="1GvkOFfXkZYTMTRJ72ga-144" value="Уровень владения" style="text;html=1;align=center;verticalAlign=middle;whiteSpace=wrap;rounded=0;" parent="1" vertex="1">
          <mxGeometry x="1806" y="1075" width="60" height="30" as="geometry" />
        </mxCell>
        <mxCell id="1GvkOFfXkZYTMTRJ72ga-145" value="" style="rounded=0;whiteSpace=wrap;html=1;" parent="1" vertex="1">
          <mxGeometry x="60" y="560" width="300" height="60" as="geometry" />
        </mxCell>
        <mxCell id="1GvkOFfXkZYTMTRJ72ga-146" value="" style="rounded=0;whiteSpace=wrap;html=1;" parent="1" vertex="1">
          <mxGeometry x="60" y="560" width="70" height="60" as="geometry" />
        </mxCell>
        <mxCell id="1GvkOFfXkZYTMTRJ72ga-147" value="" style="rounded=0;whiteSpace=wrap;html=1;" parent="1" vertex="1">
          <mxGeometry x="130" y="560" width="70" height="60" as="geometry" />
        </mxCell>
        <mxCell id="1GvkOFfXkZYTMTRJ72ga-149" value="" style="rounded=0;whiteSpace=wrap;html=1;" parent="1" vertex="1">
          <mxGeometry x="200" y="560" width="80" height="60" as="geometry" />
        </mxCell>
        <mxCell id="1GvkOFfXkZYTMTRJ72ga-150" value="Поле ввода сообщения" style="text;html=1;align=center;verticalAlign=middle;whiteSpace=wrap;rounded=0;" parent="1" vertex="1">
          <mxGeometry x="718.5" y="530" width="142" height="30" as="geometry" />
        </mxCell>
        <mxCell id="1GvkOFfXkZYTMTRJ72ga-151" value="" style="rounded=0;whiteSpace=wrap;html=1;" parent="1" vertex="1">
          <mxGeometry x="1710" y="145" width="70" height="60" as="geometry" />
        </mxCell>
        <mxCell id="1GvkOFfXkZYTMTRJ72ga-152" value="Кнопка &quot;заплани-ровать конфу&quot;" style="text;html=1;align=center;verticalAlign=middle;whiteSpace=wrap;rounded=0;" parent="1" vertex="1">
          <mxGeometry x="1715" y="145" width="65" height="60" as="geometry" />
        </mxCell>
        <mxCell id="1GvkOFfXkZYTMTRJ72ga-153" value="" style="rounded=0;whiteSpace=wrap;html=1;" parent="1" vertex="1">
          <mxGeometry x="1710" y="205" width="70" height="60" as="geometry" />
        </mxCell>
        <mxCell id="1GvkOFfXkZYTMTRJ72ga-154" value="Кнопка &quot;заплани-ровать конфу&quot;" style="text;html=1;align=center;verticalAlign=middle;whiteSpace=wrap;rounded=0;" parent="1" vertex="1">
          <mxGeometry x="1715" y="205" width="65" height="60" as="geometry" />
        </mxCell>
        <mxCell id="1GvkOFfXkZYTMTRJ72ga-155" value="" style="rounded=0;whiteSpace=wrap;html=1;" parent="1" vertex="1">
          <mxGeometry x="1710" y="265" width="70" height="60" as="geometry" />
        </mxCell>
        <mxCell id="1GvkOFfXkZYTMTRJ72ga-156" value="Кнопка &quot;заплани-ровать конфу&quot;" style="text;html=1;align=center;verticalAlign=middle;whiteSpace=wrap;rounded=0;" parent="1" vertex="1">
          <mxGeometry x="1715" y="265" width="65" height="60" as="geometry" />
        </mxCell>
        <mxCell id="1GvkOFfXkZYTMTRJ72ga-157" value="" style="rounded=0;whiteSpace=wrap;html=1;" parent="1" vertex="1">
          <mxGeometry x="1710" y="325" width="70" height="60" as="geometry" />
        </mxCell>
        <mxCell id="1GvkOFfXkZYTMTRJ72ga-158" value="Кнопка &quot;заплани-ровать конфу&quot;" style="text;html=1;align=center;verticalAlign=middle;whiteSpace=wrap;rounded=0;" parent="1" vertex="1">
          <mxGeometry x="1715" y="325" width="65" height="60" as="geometry" />
        </mxCell>
        <mxCell id="1GvkOFfXkZYTMTRJ72ga-159" value="" style="rounded=0;whiteSpace=wrap;html=1;" parent="1" vertex="1">
          <mxGeometry x="1710" y="385" width="70" height="60" as="geometry" />
        </mxCell>
        <mxCell id="1GvkOFfXkZYTMTRJ72ga-160" value="Кнопка &quot;заплани-ровать конфу&quot;" style="text;html=1;align=center;verticalAlign=middle;whiteSpace=wrap;rounded=0;" parent="1" vertex="1">
          <mxGeometry x="1715" y="385" width="65" height="60" as="geometry" />
        </mxCell>
        <mxCell id="1GvkOFfXkZYTMTRJ72ga-161" value="" style="rounded=0;whiteSpace=wrap;html=1;" parent="1" vertex="1">
          <mxGeometry x="1710" y="440" width="70" height="60" as="geometry" />
        </mxCell>
        <mxCell id="1GvkOFfXkZYTMTRJ72ga-162" value="Кнопка &quot;заплани-ровать конфу&quot;" style="text;html=1;align=center;verticalAlign=middle;whiteSpace=wrap;rounded=0;" parent="1" vertex="1">
          <mxGeometry x="1715" y="440" width="65" height="60" as="geometry" />
        </mxCell>
        <mxCell id="1GvkOFfXkZYTMTRJ72ga-163" value="" style="rounded=0;whiteSpace=wrap;html=1;" parent="1" vertex="1">
          <mxGeometry x="1710" y="500" width="70" height="60" as="geometry" />
        </mxCell>
        <mxCell id="1GvkOFfXkZYTMTRJ72ga-164" value="Кнопка &quot;заплани-ровать конфу&quot;" style="text;html=1;align=center;verticalAlign=middle;whiteSpace=wrap;rounded=0;" parent="1" vertex="1">
          <mxGeometry x="1715" y="500" width="65" height="60" as="geometry" />
        </mxCell>
        <mxCell id="1GvkOFfXkZYTMTRJ72ga-165" value="ЛК" style="text;html=1;align=center;verticalAlign=middle;whiteSpace=wrap;rounded=0;" parent="1" vertex="1">
          <mxGeometry x="65" y="575" width="60" height="30" as="geometry" />
        </mxCell>
        <mxCell id="1GvkOFfXkZYTMTRJ72ga-166" value="Чаты" style="text;html=1;align=center;verticalAlign=middle;whiteSpace=wrap;rounded=0;" parent="1" vertex="1">
          <mxGeometry x="135" y="575" width="60" height="30" as="geometry" />
        </mxCell>
        <mxCell id="1GvkOFfXkZYTMTRJ72ga-167" value="Просмотр анкет" style="text;html=1;align=center;verticalAlign=middle;whiteSpace=wrap;rounded=0;" parent="1" vertex="1">
          <mxGeometry x="210" y="575" width="60" height="30" as="geometry" />
        </mxCell>
        <mxCell id="1GvkOFfXkZYTMTRJ72ga-168" value="" style="rounded=0;whiteSpace=wrap;html=1;" parent="1" vertex="1">
          <mxGeometry x="1037" y="1240" width="70" height="60" as="geometry" />
        </mxCell>
        <mxCell id="1GvkOFfXkZYTMTRJ72ga-169" value="Кнопка изменить" style="text;html=1;align=center;verticalAlign=middle;whiteSpace=wrap;rounded=0;" parent="1" vertex="1">
          <mxGeometry x="1047" y="1255" width="45" height="30" as="geometry" />
        </mxCell>
        <mxCell id="1GvkOFfXkZYTMTRJ72ga-172" value="" style="rounded=0;whiteSpace=wrap;html=1;" parent="1" vertex="1">
          <mxGeometry x="847" y="1031" width="260" height="30" as="geometry" />
        </mxCell>
        <mxCell id="1GvkOFfXkZYTMTRJ72ga-173" value="Статус &quot;Автор контента&quot;" style="text;html=1;align=center;verticalAlign=middle;whiteSpace=wrap;rounded=0;" parent="1" vertex="1">
          <mxGeometry x="837" y="1030" width="180" height="30" as="geometry" />
        </mxCell>
        <mxCell id="1GvkOFfXkZYTMTRJ72ga-174" value="" style="rounded=0;whiteSpace=wrap;html=1;" parent="1" vertex="1">
          <mxGeometry x="1027" y="1031" width="80" height="30" as="geometry" />
        </mxCell>
        <mxCell id="1GvkOFfXkZYTMTRJ72ga-175" value="Изменить" style="text;html=1;align=center;verticalAlign=middle;whiteSpace=wrap;rounded=0;" parent="1" vertex="1">
          <mxGeometry x="1023.5" y="1030" width="87" height="30" as="geometry" />
        </mxCell>
        <mxCell id="1GvkOFfXkZYTMTRJ72ga-176" value="" style="shape=umlActor;verticalLabelPosition=bottom;verticalAlign=top;html=1;outlineConnect=0;" parent="1" vertex="1">
          <mxGeometry x="709.5" y="95" width="17" height="30" as="geometry" />
        </mxCell>
        <mxCell id="1GvkOFfXkZYTMTRJ72ga-178" value="Заплани-рованные конферен-ции" style="text;html=1;align=center;verticalAlign=middle;whiteSpace=wrap;rounded=0;" parent="1" vertex="1">
          <mxGeometry x="290" y="575" width="60" height="30" as="geometry" />
        </mxCell>
        <mxCell id="jX7xDOMbAJI4A2eP9L53-30" style="edgeStyle=orthogonalEdgeStyle;rounded=0;orthogonalLoop=1;jettySize=auto;html=1;exitX=1;exitY=0.25;exitDx=0;exitDy=0;" parent="1" source="1GvkOFfXkZYTMTRJ72ga-179" edge="1">
          <mxGeometry relative="1" as="geometry">
            <mxPoint x="2330" y="221" as="targetPoint" />
          </mxGeometry>
        </mxCell>
        <mxCell id="1GvkOFfXkZYTMTRJ72ga-179" value="" style="rounded=0;whiteSpace=wrap;html=1;" parent="1" vertex="1">
          <mxGeometry x="1970" y="95" width="300" height="500" as="geometry" />
        </mxCell>
        <mxCell id="1GvkOFfXkZYTMTRJ72ga-180" value="" style="rounded=0;whiteSpace=wrap;html=1;" parent="1" vertex="1">
          <mxGeometry x="2020" y="135" width="210" height="160" as="geometry" />
        </mxCell>
        <mxCell id="1GvkOFfXkZYTMTRJ72ga-182" value="Веб - камера пользователя 1" style="shape=umlActor;verticalLabelPosition=bottom;verticalAlign=top;html=1;outlineConnect=0;" parent="1" vertex="1">
          <mxGeometry x="2110" y="194" width="30" height="61" as="geometry" />
        </mxCell>
        <mxCell id="1GvkOFfXkZYTMTRJ72ga-183" value="" style="rounded=0;whiteSpace=wrap;html=1;" parent="1" vertex="1">
          <mxGeometry x="2020" y="306" width="210" height="160" as="geometry" />
        </mxCell>
        <mxCell id="1GvkOFfXkZYTMTRJ72ga-184" value="Веб - камера пользователя 2" style="shape=umlActor;verticalLabelPosition=bottom;verticalAlign=top;html=1;outlineConnect=0;" parent="1" vertex="1">
          <mxGeometry x="2110" y="365" width="30" height="61" as="geometry" />
        </mxCell>
        <mxCell id="1GvkOFfXkZYTMTRJ72ga-185" value="Чат" style="rounded=0;whiteSpace=wrap;html=1;" parent="1" vertex="1">
          <mxGeometry x="2000" y="495" width="70" height="60" as="geometry" />
        </mxCell>
        <mxCell id="1GvkOFfXkZYTMTRJ72ga-186" value="Завершить вызов" style="rounded=0;whiteSpace=wrap;html=1;" parent="1" vertex="1">
          <mxGeometry x="2170" y="495" width="80" height="60" as="geometry" />
        </mxCell>
        <mxCell id="1GvkOFfXkZYTMTRJ72ga-187" value="Настройки" style="rounded=0;whiteSpace=wrap;html=1;" parent="1" vertex="1">
          <mxGeometry x="2070" y="495" width="100" height="60" as="geometry" />
        </mxCell>
        <mxCell id="1GvkOFfXkZYTMTRJ72ga-188" value="" style="rounded=0;whiteSpace=wrap;html=1;" parent="1" vertex="1">
          <mxGeometry x="1480" y="560" width="300" height="60" as="geometry" />
        </mxCell>
        <mxCell id="1GvkOFfXkZYTMTRJ72ga-189" value="" style="rounded=0;whiteSpace=wrap;html=1;" parent="1" vertex="1">
          <mxGeometry x="1480" y="560" width="70" height="60" as="geometry" />
        </mxCell>
        <mxCell id="1GvkOFfXkZYTMTRJ72ga-190" value="" style="rounded=0;whiteSpace=wrap;html=1;" parent="1" vertex="1">
          <mxGeometry x="1550" y="560" width="70" height="60" as="geometry" />
        </mxCell>
        <mxCell id="1GvkOFfXkZYTMTRJ72ga-191" value="" style="rounded=0;whiteSpace=wrap;html=1;" parent="1" vertex="1">
          <mxGeometry x="1620" y="560" width="80" height="60" as="geometry" />
        </mxCell>
        <mxCell id="1GvkOFfXkZYTMTRJ72ga-192" value="ЛК" style="text;html=1;align=center;verticalAlign=middle;whiteSpace=wrap;rounded=0;" parent="1" vertex="1">
          <mxGeometry x="1485" y="575" width="60" height="30" as="geometry" />
        </mxCell>
        <mxCell id="1GvkOFfXkZYTMTRJ72ga-193" value="Чаты" style="text;html=1;align=center;verticalAlign=middle;whiteSpace=wrap;rounded=0;" parent="1" vertex="1">
          <mxGeometry x="1555" y="575" width="60" height="30" as="geometry" />
        </mxCell>
        <mxCell id="1GvkOFfXkZYTMTRJ72ga-194" value="Просмотр анкет" style="text;html=1;align=center;verticalAlign=middle;whiteSpace=wrap;rounded=0;" parent="1" vertex="1">
          <mxGeometry x="1630" y="575" width="60" height="30" as="geometry" />
        </mxCell>
        <mxCell id="1GvkOFfXkZYTMTRJ72ga-195" value="Заплани-рованные конферен-ции" style="text;html=1;align=center;verticalAlign=middle;whiteSpace=wrap;rounded=0;" parent="1" vertex="1">
          <mxGeometry x="1710" y="575" width="60" height="30" as="geometry" />
        </mxCell>
        <mxCell id="jX7xDOMbAJI4A2eP9L53-19" style="edgeStyle=orthogonalEdgeStyle;rounded=0;orthogonalLoop=1;jettySize=auto;html=1;exitX=1;exitY=0.5;exitDx=0;exitDy=0;entryX=0;entryY=0.5;entryDx=0;entryDy=0;" parent="1" source="1GvkOFfXkZYTMTRJ72ga-197" target="1GvkOFfXkZYTMTRJ72ga-200" edge="1">
          <mxGeometry relative="1" as="geometry" />
        </mxCell>
        <mxCell id="1GvkOFfXkZYTMTRJ72ga-197" value="" style="rounded=0;whiteSpace=wrap;html=1;" parent="1" vertex="1">
          <mxGeometry x="92.5" y="1510" width="300" height="500" as="geometry" />
        </mxCell>
        <mxCell id="1GvkOFfXkZYTMTRJ72ga-198" value="Карточка заявки:&lt;div&gt;ИД заявки&lt;/div&gt;&lt;div&gt;ИД заявителя&lt;/div&gt;&lt;div&gt;Текстовое описание проблемы&lt;/div&gt;&lt;div&gt;Вложения(опционально)&lt;/div&gt;&lt;div&gt;Дата создания&lt;/div&gt;&lt;div&gt;Статус&lt;/div&gt;" style="rounded=0;whiteSpace=wrap;html=1;" parent="1" vertex="1">
          <mxGeometry x="135" y="1570" width="225" height="240" as="geometry" />
        </mxCell>
        <mxCell id="1GvkOFfXkZYTMTRJ72ga-199" value="Пагинация" style="text;html=1;align=center;verticalAlign=middle;whiteSpace=wrap;rounded=0;" parent="1" vertex="1">
          <mxGeometry x="218" y="1850" width="60" height="30" as="geometry" />
        </mxCell>
        <mxCell id="1GvkOFfXkZYTMTRJ72ga-200" value="" style="rounded=0;whiteSpace=wrap;html=1;" parent="1" vertex="1">
          <mxGeometry x="685" y="1510" width="310" height="500" as="geometry" />
        </mxCell>
        <mxCell id="1GvkOFfXkZYTMTRJ72ga-201" value="ИД Заявки" style="rounded=0;whiteSpace=wrap;html=1;" parent="1" vertex="1">
          <mxGeometry x="723" y="1550" width="120" height="60" as="geometry" />
        </mxCell>
        <mxCell id="1GvkOFfXkZYTMTRJ72ga-203" value="ИД Заявиттеля" style="rounded=0;whiteSpace=wrap;html=1;" parent="1" vertex="1">
          <mxGeometry x="723" y="1630" width="120" height="60" as="geometry" />
        </mxCell>
        <mxCell id="1GvkOFfXkZYTMTRJ72ga-204" value="Текстовое описание проблемы" style="rounded=0;whiteSpace=wrap;html=1;" parent="1" vertex="1">
          <mxGeometry x="723" y="1724" width="242" height="60" as="geometry" />
        </mxCell>
        <mxCell id="1GvkOFfXkZYTMTRJ72ga-205" value="Вложения(опционально)" style="rounded=0;whiteSpace=wrap;html=1;" parent="1" vertex="1">
          <mxGeometry x="723.5" y="1810" width="242" height="60" as="geometry" />
        </mxCell>
        <mxCell id="1GvkOFfXkZYTMTRJ72ga-206" value="Дата создания, статус" style="rounded=0;whiteSpace=wrap;html=1;" parent="1" vertex="1">
          <mxGeometry x="855" y="1550" width="120" height="60" as="geometry" />
        </mxCell>
        <mxCell id="jX7xDOMbAJI4A2eP9L53-13" style="edgeStyle=orthogonalEdgeStyle;rounded=0;orthogonalLoop=1;jettySize=auto;html=1;exitX=0.75;exitY=1;exitDx=0;exitDy=0;" parent="1" source="1GvkOFfXkZYTMTRJ72ga-207" edge="1">
          <mxGeometry relative="1" as="geometry">
            <mxPoint x="1230" y="1960" as="targetPoint" />
            <Array as="points">
              <mxPoint x="807" y="2050" />
              <mxPoint x="1220" y="2050" />
            </Array>
          </mxGeometry>
        </mxCell>
        <mxCell id="1GvkOFfXkZYTMTRJ72ga-207" value="Кнопка &quot;Взять в работу&quot;" style="rounded=0;whiteSpace=wrap;html=1;" parent="1" vertex="1">
          <mxGeometry x="723.5" y="1910" width="111.5" height="60" as="geometry" />
        </mxCell>
        <mxCell id="jX7xDOMbAJI4A2eP9L53-15" style="edgeStyle=orthogonalEdgeStyle;rounded=0;orthogonalLoop=1;jettySize=auto;html=1;exitX=0.75;exitY=0;exitDx=0;exitDy=0;" parent="1" edge="1">
          <mxGeometry relative="1" as="geometry">
            <mxPoint x="1257.53" y="1800.0299999999995" as="targetPoint" />
            <mxPoint x="945.03" y="1930.03" as="sourcePoint" />
            <Array as="points">
              <mxPoint x="944.53" y="1880.03" />
              <mxPoint x="1258.53" y="1880.03" />
              <mxPoint x="1258.53" y="1800.03" />
            </Array>
          </mxGeometry>
        </mxCell>
        <mxCell id="1GvkOFfXkZYTMTRJ72ga-208" value="Кнопка &quot;Передать 2й линии&lt;span style=&quot;background-color: initial;&quot;&gt;&quot;&lt;/span&gt;" style="rounded=0;whiteSpace=wrap;html=1;" parent="1" vertex="1">
          <mxGeometry x="855" y="1910" width="110" height="60" as="geometry" />
        </mxCell>
        <mxCell id="1GvkOFfXkZYTMTRJ72ga-209" value="" style="rounded=0;whiteSpace=wrap;html=1;" parent="1" vertex="1">
          <mxGeometry x="65" y="820" width="300" height="500" as="geometry" />
        </mxCell>
        <mxCell id="1GvkOFfXkZYTMTRJ72ga-210" value="Ссылка на сертификаты, подтверждающие уровень владения языком" style="rounded=0;whiteSpace=wrap;html=1;" parent="1" vertex="1">
          <mxGeometry x="85" y="860" width="265" height="60" as="geometry" />
        </mxCell>
        <mxCell id="1GvkOFfXkZYTMTRJ72ga-211" value="Данные об образовании" style="rounded=0;whiteSpace=wrap;html=1;" parent="1" vertex="1">
          <mxGeometry x="85" y="955" width="265" height="60" as="geometry" />
        </mxCell>
        <mxCell id="1GvkOFfXkZYTMTRJ72ga-212" value="Мотивация в свободной форме" style="rounded=0;whiteSpace=wrap;html=1;" parent="1" vertex="1">
          <mxGeometry x="87" y="1045" width="260" height="159" as="geometry" />
        </mxCell>
        <mxCell id="jX7xDOMbAJI4A2eP9L53-41" style="edgeStyle=orthogonalEdgeStyle;rounded=0;orthogonalLoop=1;jettySize=auto;html=1;exitX=1;exitY=0.5;exitDx=0;exitDy=0;" parent="1" source="1GvkOFfXkZYTMTRJ72ga-213" edge="1">
          <mxGeometry relative="1" as="geometry">
            <mxPoint x="440" y="1250" as="targetPoint" />
          </mxGeometry>
        </mxCell>
        <mxCell id="1GvkOFfXkZYTMTRJ72ga-213" value="Кнопка &quot;Отправить заявку&quot;" style="rounded=0;whiteSpace=wrap;html=1;" parent="1" vertex="1">
          <mxGeometry x="85" y="1240" width="265" height="60" as="geometry" />
        </mxCell>
        <mxCell id="1GvkOFfXkZYTMTRJ72ga-214" value="&lt;h1 style=&quot;margin-top: 0px;&quot;&gt;Экран просмотра анкет&lt;/h1&gt;&lt;div style=&quot;font-size: 19px;&quot;&gt;/form&lt;span style=&quot;color: rgba(0, 0, 0, 0); font-family: monospace; font-size: 0px; text-wrap-mode: nowrap; background-color: initial;&quot;&gt;%3CmxGraphModel%3E%3Croot%3E%3CmxCell%20id%3D%220%22%2F%3E%3CmxCell%20id%3D%221%22%20parent%3D%220%22%2F%3E%3CmxCell%20id%3D%222%22%20value%3D%22%22%20style%3D%22rounded%3D0%3BwhiteSpace%3Dwrap%3Bhtml%3D1%3B%22%20vertex%3D%221%22%20parent%3D%221%22%3E%3CmxGeometry%20x%3D%221315%22%20y%3D%22800%22%20width%3D%22300%22%20height%3D%22500%22%20as%3D%22geometry%22%2F%3E%3C%2FmxCell%3E%3C%2Froot%3E%3C%2FmxGraphModel%3E&lt;/span&gt;&lt;span style=&quot;background-color: initial;&quot;&gt;s&lt;/span&gt;&lt;/div&gt;" style="text;html=1;whiteSpace=wrap;overflow=hidden;rounded=0;" parent="1" vertex="1">
          <mxGeometry x="73" y="-90" width="180" height="140" as="geometry" />
        </mxCell>
        <mxCell id="1GvkOFfXkZYTMTRJ72ga-216" value="&lt;h1 style=&quot;margin-top: 0px;&quot;&gt;Экран переписки&lt;/h1&gt;&lt;div style=&quot;font-size: 19px;&quot;&gt;/chats/{chatID}&lt;span style=&quot;color: rgba(0, 0, 0, 0); font-family: monospace; font-size: 0px; text-wrap-mode: nowrap; background-color: initial;&quot;&gt;%3CmxGraphModel%3E%3Croot%3E%3CmxCell%20id%3D%220%22%2F%3E%3CmxCell%20id%3D%221%22%20parent%3D%220%22%2F%3E%3CmxCell%20id%3D%222%22%20value%3D%22%22%20style%3D%22rounded%3D0%3BwhiteSpace%3Dwrap%3Bhtml%3D1%3B%22%20vertex%3D%221%22%20parent%3D%221%22%3E%3CmxGeometry%20x%3D%221315%22%20y%3D%22800%22%20width%3D%22300%22%20height%3D%22500%22%20as%3D%22geometry%22%2F%3E%3C%2FmxCell%3E%3C%2Froot%3E%3C%2FmxGraphModel&lt;/span&gt;&lt;/div&gt;" style="text;html=1;whiteSpace=wrap;overflow=hidden;rounded=0;" parent="1" vertex="1">
          <mxGeometry x="660" y="-90" width="180" height="140" as="geometry" />
        </mxCell>
        <mxCell id="1GvkOFfXkZYTMTRJ72ga-217" value="&lt;h1 style=&quot;margin-top: 0px;&quot;&gt;Экран cо списком чатов&lt;/h1&gt;&lt;div style=&quot;font-size: 19px;&quot;&gt;/chats&lt;/div&gt;" style="text;html=1;whiteSpace=wrap;overflow=hidden;rounded=0;" parent="1" vertex="1">
          <mxGeometry x="1480" y="-85" width="180" height="140" as="geometry" />
        </mxCell>
        <mxCell id="1GvkOFfXkZYTMTRJ72ga-218" value="&lt;h1 style=&quot;margin-top: 0px;&quot;&gt;Экран видеоконференции&lt;/h1&gt;&lt;h1 style=&quot;margin-top: 0px;&quot;&gt;&lt;span style=&quot;font-size: 19px; background-color: initial; font-weight: normal;&quot;&gt;/conferentions/{conferentionID}&lt;/span&gt;&lt;span style=&quot;background-color: initial; font-weight: normal; text-wrap-mode: nowrap; color: rgba(0, 0, 0, 0); font-family: monospace; font-size: 0px;&quot;&gt;%3CmxGraphModel%3E%3Croot%3E%3CmxCell%20id%3D%220%22%2F%3E%3CmxCell%20id%3D%221%22%20parent%3D%220%22%2F%3E%3CmxCell%20id%3D%222%22%20value%3D%22%22%20style%3D%22rounded%3D0%3BwhiteSpace%3Dwrap%3Bhtml%3D1%3B%22%20vertex%3D%221%22%20parent%3D%221%22%3E%3CmxGeometry%20x%3D%221315%22%20y%3D%22800%22%20width%3D%22300%22%20height%3D%22500%22%20as%3D%22geometry%22%2F%3E%3C%2FmxCell%3E%3C%2Froot%3E%3C%2FmxGraphModel&lt;/span&gt;&lt;/h1&gt;" style="text;html=1;whiteSpace=wrap;overflow=hidden;rounded=0;" parent="1" vertex="1">
          <mxGeometry x="1960" y="-30" width="320" height="140" as="geometry" />
        </mxCell>
        <mxCell id="1GvkOFfXkZYTMTRJ72ga-219" value="" style="rounded=0;whiteSpace=wrap;html=1;" parent="1" vertex="1">
          <mxGeometry x="880" y="95" width="65" height="30" as="geometry" />
        </mxCell>
        <mxCell id="1GvkOFfXkZYTMTRJ72ga-220" value="" style="endArrow=none;dashed=1;html=1;dashPattern=1 3;strokeWidth=2;rounded=0;" parent="1" edge="1">
          <mxGeometry width="50" height="50" relative="1" as="geometry">
            <mxPoint x="950" y="90" as="sourcePoint" />
            <mxPoint x="1000" y="40" as="targetPoint" />
            <Array as="points">
              <mxPoint x="1000" y="40" />
            </Array>
          </mxGeometry>
        </mxCell>
        <mxCell id="1GvkOFfXkZYTMTRJ72ga-221" value="&lt;span style=&quot;font-size: 12px;&quot;&gt;Кнопка&amp;nbsp;&lt;/span&gt;&lt;div&gt;&lt;span style=&quot;font-size: 12px;&quot;&gt;&quot;начать видеочат&quot;&lt;/span&gt;&lt;/div&gt;" style="edgeLabel;html=1;align=center;verticalAlign=middle;resizable=0;points=[];" parent="1GvkOFfXkZYTMTRJ72ga-220" vertex="1" connectable="0">
          <mxGeometry x="0.3771" y="-2" relative="1" as="geometry">
            <mxPoint as="offset" />
          </mxGeometry>
        </mxCell>
        <mxCell id="1GvkOFfXkZYTMTRJ72ga-222" value="&lt;h1 style=&quot;margin-top: 0px;&quot;&gt;Экран редактирования анкеты&lt;/h1&gt;&lt;div style=&quot;font-size: 19px;&quot;&gt;/PAccounts/{UserID}/red/{FormID}&lt;span style=&quot;color: rgba(0, 0, 0, 0); font-family: monospace; font-size: 0px; text-wrap-mode: nowrap; background-color: initial;&quot;&gt;%3CmxGraphModel%3E%3Croot%3E%3CmxCell%20id%3D%220%22%2F%3E%3CmxCell%20id%3D%221%22%20parent%3D%220%22%2F%3E%3CmxCell%20id%3D%222%22%20value%3D%22%22%20style%3D%22rounded%3D0%3BwhiteSpace%3Dwrap%3Bhtml%3D1%3B%22%20vertex%3D%221%22%20parent%3D%221%22%3E%3CmxGeometry%20x%3D%221315%22%20y%3D%22800%22%20width%3D%22300%22%20height%3D%22500%22%20as%3D%22geometry%22%2F%3E%3C%2FmxCell%3E%3C%2Froot%3E%3C%2FmxGraphModel%&lt;/span&gt;&lt;/div&gt;" style="text;html=1;whiteSpace=wrap;overflow=hidden;rounded=0;" parent="1" vertex="1">
          <mxGeometry x="1680" y="750" width="350" height="140" as="geometry" />
        </mxCell>
        <mxCell id="1GvkOFfXkZYTMTRJ72ga-224" value="&lt;h1 style=&quot;margin-top: 0px;&quot;&gt;Экран подачи заявки на авторство&lt;/h1&gt;&lt;div style=&quot;font-size: 19px;&quot;&gt;/PAccounts/{UserID}/AuthorForms&lt;span style=&quot;color: rgba(0, 0, 0, 0); font-family: monospace; font-size: 0px; text-wrap-mode: nowrap; background-color: initial;&quot;&gt;%3CmxGraphModel%3E%3Croot%3E%3CmxCell%20id%3D%220%22%2F%3E%3CmxCell%20id%3D%221%22%20parent%3D%220%22%2F%3E%3CmxCell%20id%3D%222%22%20value%3D%22%22%20style%3D%22rounded%3D0%3BwhiteSpace%3Dwrap%3Bhtml%3D1%3B%22%20vertex%3D%221%22%20parent%3D%221%22%3E%3CmxGeometry%20x%3D%221315%22%20y%3D%22800%22%20width%3D%22300%22%20height%3D%22500%22%20as%3D%22geometry%22%2F%3E%3C%2FmxCell%3E%3C%2Froot%3E%3C%2FmxGraphModel%&lt;/span&gt;&lt;/div&gt;" style="text;html=1;whiteSpace=wrap;overflow=hidden;rounded=0;" parent="1" vertex="1">
          <mxGeometry x="64" y="690" width="350" height="140" as="geometry" />
        </mxCell>
        <mxCell id="1GvkOFfXkZYTMTRJ72ga-225" value="&lt;h1 style=&quot;margin-top: 0px;&quot;&gt;Экран ЛК&lt;/h1&gt;&lt;h1 style=&quot;margin-top: 0px;&quot;&gt;&amp;nbsp;&lt;span style=&quot;font-size: 19px; background-color: initial; font-weight: normal;&quot;&gt;/PAccounts/{UserID}/&lt;/span&gt;&lt;span style=&quot;background-color: initial; font-weight: normal; text-wrap-mode: nowrap; color: rgba(0, 0, 0, 0); font-family: monospace; font-size: 0px;&quot;&gt;3CmxGraphModel%3E%3Croot%3E%3CmxCell%20id%3D%220%22%2F%3E%3CmxCell%20id%3D%221%22%20parent%3D%220%22%2F%3E%3CmxCell%20id%3D%222%22%20value%3D%22%22%20style%3D%22rounded%3D0%3BwhiteSpace%3Dwrap%3Bhtml%3D1%3B%22%20vertex%3D%221%22%20parent%3D%221%22%3E%3CmxGeometry%20x%3D%221315%22%20y%3D%22800%22%20width%3D%22300%22%20height%3D%22500%22%20as%3D%22geometry%22%2F%3E%3C%2FmxCell%3E%3C%2Froot%3E%3C%2FmxGraphModel%&lt;/span&gt;&lt;/h1&gt;" style="text;html=1;whiteSpace=wrap;overflow=hidden;rounded=0;" parent="1" vertex="1">
          <mxGeometry x="827" y="720" width="350" height="140" as="geometry" />
        </mxCell>
        <mxCell id="1GvkOFfXkZYTMTRJ72ga-226" value="&lt;h1 style=&quot;margin-top: 0px;&quot;&gt;Экран списка заявок в поддержку&lt;/h1&gt;&lt;div style=&quot;font-size: 19px;&quot;&gt;/applications&lt;span style=&quot;color: rgba(0, 0, 0, 0); font-family: monospace; font-size: 0px; text-wrap-mode: nowrap; background-color: initial;&quot;&gt;%3CmxGraphModel%3E%3Croot%3E%3CmxCell%20id%3D%220%22%2F%3E%3CmxCell%20id%3D%221%22%20parent%3D%220%22%2F%3E%3CmxCell%20id%3D%222%22%20value%3D%22%22%20style%3D%22rounded%3D0%3BwhiteSpace%3Dwrap%3Bhtml%3D1%3B%22%20vertex%3D%221%22%20parent%3D%221%22%3E%3CmxGeometry%20x%3D%221315%22%20y%3D%22800%22%20width%3D%22300%22%20height%3D%22500%22%20as%3D%22geometry%22%2F%3E%3C%2FmxCell%3E%3C%2Froot%3E%3C%2FmxGraphModel%&lt;/span&gt;&lt;/div&gt;" style="text;html=1;whiteSpace=wrap;overflow=hidden;rounded=0;" parent="1" vertex="1">
          <mxGeometry x="80" y="1400" width="350" height="140" as="geometry" />
        </mxCell>
        <mxCell id="1GvkOFfXkZYTMTRJ72ga-227" value="&lt;h1 style=&quot;margin-top: 0px;&quot;&gt;Экран заявки&lt;/h1&gt;&lt;div style=&quot;font-size: 19px;&quot;&gt;/applications/{ApplicationID}&lt;span style=&quot;color: rgba(0, 0, 0, 0); font-family: monospace; font-size: 0px; text-wrap-mode: nowrap; background-color: initial;&quot;&gt;%3CmxGraphModel%3E%3Croot%3E%3CmxCell%20id%3D%220%22%2F%3E%3CmxCell%20id%3D%221%22%20parent%3D%220%22%2F%3E%3CmxCell%20id%3D%222%22%20value%3D%22%22%20style%3D%22rounded%3D0%3BwhiteSpace%3Dwrap%3Bhtml%3D1%3B%22%20vertex%3D%221%22%20parent%3D%221%22%3E%3CmxGeometry%20x%3D%221315%22%20y%3D%22800%22%20width%3D%22300%22%20height%3D%22500%22%20as%3D%22geometry%22%2F%3E%3C%2FmxCell%3E%3C%2Froot%3E%3C%2FmxGraphModel%&lt;/span&gt;&lt;/div&gt;" style="text;html=1;whiteSpace=wrap;overflow=hidden;rounded=0;" parent="1" vertex="1">
          <mxGeometry x="680" y="1400" width="350" height="140" as="geometry" />
        </mxCell>
        <mxCell id="jX7xDOMbAJI4A2eP9L53-3" value="" style="endArrow=none;dashed=1;html=1;dashPattern=1 3;strokeWidth=2;rounded=0;" parent="1" source="1GvkOFfXkZYTMTRJ72ga-198" edge="1">
          <mxGeometry width="50" height="50" relative="1" as="geometry">
            <mxPoint x="570" y="1650" as="sourcePoint" />
            <mxPoint x="490" y="1600" as="targetPoint" />
          </mxGeometry>
        </mxCell>
        <mxCell id="jX7xDOMbAJI4A2eP9L53-4" value="&lt;font style=&quot;font-size: 20px;&quot;&gt;Эндпоинт: GET/applications&lt;/font&gt;" style="edgeLabel;html=1;align=center;verticalAlign=middle;resizable=0;points=[];" parent="jX7xDOMbAJI4A2eP9L53-3" connectable="0" vertex="1">
          <mxGeometry x="0.5563" y="-5" relative="1" as="geometry">
            <mxPoint x="57" y="-35" as="offset" />
          </mxGeometry>
        </mxCell>
        <mxCell id="jX7xDOMbAJI4A2eP9L53-5" value="&lt;font style=&quot;font-size: 20px;&quot;&gt;Эндпоинт:&amp;nbsp;&lt;/font&gt;&lt;div&gt;&lt;font style=&quot;font-size: 20px;&quot;&gt;GET/applications/{ApplicationID}&lt;/font&gt;&lt;/div&gt;" style="edgeLabel;html=1;align=center;verticalAlign=middle;resizable=0;points=[];" parent="1" connectable="0" vertex="1">
          <mxGeometry x="1210.0019715295073" y="1569.9951945827268" as="geometry" />
        </mxCell>
        <mxCell id="jX7xDOMbAJI4A2eP9L53-6" value="" style="endArrow=none;dashed=1;html=1;dashPattern=1 3;strokeWidth=2;rounded=0;" parent="1" edge="1">
          <mxGeometry width="50" height="50" relative="1" as="geometry">
            <mxPoint x="995" y="1648" as="sourcePoint" />
            <mxPoint x="1125" y="1600" as="targetPoint" />
          </mxGeometry>
        </mxCell>
        <mxCell id="jX7xDOMbAJI4A2eP9L53-8" value="&lt;span style=&quot;font-size: 20px;&quot;&gt;Эндпоинт:&lt;br&gt;GET/chats{chatID}&lt;/span&gt;" style="edgeLabel;html=1;align=center;verticalAlign=middle;resizable=0;points=[];" parent="1" connectable="0" vertex="1">
          <mxGeometry x="1127.0019715295073" y="314.99519458272675" as="geometry" />
        </mxCell>
        <mxCell id="jX7xDOMbAJI4A2eP9L53-14" value="&lt;span style=&quot;font-size: 20px;&quot;&gt;Эндпоинт:&lt;br&gt;POST/secondline/applications/{ApplicationID}/{ManagerID}&lt;/span&gt;" style="edgeLabel;html=1;align=center;verticalAlign=middle;resizable=0;points=[];" parent="1" connectable="0" vertex="1">
          <mxGeometry x="1310.0019715295073" y="1753.9951945827268" as="geometry" />
        </mxCell>
        <mxCell id="jX7xDOMbAJI4A2eP9L53-20" style="edgeStyle=orthogonalEdgeStyle;rounded=0;orthogonalLoop=1;jettySize=auto;html=1;exitX=0;exitY=1;exitDx=0;exitDy=0;entryX=0.997;entryY=0.323;entryDx=0;entryDy=0;entryPerimeter=0;" parent="1" source="1GvkOFfXkZYTMTRJ72ga-76" target="1GvkOFfXkZYTMTRJ72ga-30" edge="1">
          <mxGeometry relative="1" as="geometry" />
        </mxCell>
        <mxCell id="jX7xDOMbAJI4A2eP9L53-23" value="&lt;span style=&quot;font-size: 20px;&quot;&gt;Эндпоинт:&lt;br&gt;PUT/applications/{ApplicationID}/{ManagerID}&lt;/span&gt;" style="edgeLabel;html=1;align=center;verticalAlign=middle;resizable=0;points=[];" parent="1" connectable="0" vertex="1">
          <mxGeometry x="1240.0019715295073" y="1909.9951945827268" as="geometry" />
        </mxCell>
        <mxCell id="jX7xDOMbAJI4A2eP9L53-24" value="" style="endArrow=classic;html=1;rounded=0;exitX=1;exitY=0.5;exitDx=0;exitDy=0;" parent="1" source="1GvkOFfXkZYTMTRJ72ga-30" edge="1">
          <mxGeometry width="50" height="50" relative="1" as="geometry">
            <mxPoint x="980" y="390" as="sourcePoint" />
            <mxPoint x="1030" y="330" as="targetPoint" />
          </mxGeometry>
        </mxCell>
        <mxCell id="jX7xDOMbAJI4A2eP9L53-26" value="&lt;span style=&quot;font-size: 20px;&quot;&gt;Эндпоинт:&lt;br&gt;GET/chats/{UserID}&lt;/span&gt;" style="edgeLabel;html=1;align=center;verticalAlign=middle;resizable=0;points=[];" parent="1" connectable="0" vertex="1">
          <mxGeometry x="1320.0019715295073" y="409.99519458272675" as="geometry" />
        </mxCell>
        <mxCell id="jX7xDOMbAJI4A2eP9L53-28" value="&lt;span style=&quot;font-size: 20px;&quot;&gt;Эндпоинт:&lt;br&gt;GET/conferentions/{conferentionID}&lt;/span&gt;" style="edgeLabel;html=1;align=center;verticalAlign=middle;resizable=0;points=[];" parent="1" connectable="0" vertex="1">
          <mxGeometry x="2500.0019715295075" y="219.99519458272675" as="geometry" />
        </mxCell>
        <mxCell id="jX7xDOMbAJI4A2eP9L53-31" value="&lt;span style=&quot;font-size: 20px;&quot;&gt;Эндпоинты для кнопок изменения&lt;br&gt;PATCH/PAccounts/{UserID}/&amp;lt;Атрибут для изменения&amp;gt;&lt;/span&gt;&lt;div&gt;&lt;span style=&quot;font-size: 20px;&quot;&gt;КРОМЕ:&lt;/span&gt;&lt;/div&gt;&lt;div&gt;&lt;span style=&quot;font-size: 20px;&quot;&gt;Изменение анкеты и статуса автора на отдельном&amp;nbsp;&lt;/span&gt;&lt;/div&gt;&lt;div&gt;&lt;span style=&quot;font-size: 20px;&quot;&gt;экране&lt;/span&gt;&lt;/div&gt;&lt;div&gt;&lt;span style=&quot;font-size: 20px;&quot;&gt;Изменение пароля через сторонний сервис&lt;/span&gt;&lt;/div&gt;" style="edgeLabel;html=1;align=center;verticalAlign=middle;resizable=0;points=[];" parent="1" connectable="0" vertex="1">
          <mxGeometry x="1410.0019715295073" y="889.9951945827268" as="geometry" />
        </mxCell>
        <mxCell id="jX7xDOMbAJI4A2eP9L53-34" value="&lt;span style=&quot;font-size: 20px;&quot;&gt;Эндпоинт:&lt;br&gt;GET/forms&lt;/span&gt;" style="edgeLabel;html=1;align=center;verticalAlign=middle;resizable=0;points=[];" parent="1" connectable="0" vertex="1">
          <mxGeometry x="480.0019715295073" y="324.99519458272675" as="geometry" />
        </mxCell>
        <mxCell id="jX7xDOMbAJI4A2eP9L53-36" value="&lt;span style=&quot;font-size: 20px;&quot;&gt;Эндпоинты для кнопок изменения&lt;br&gt;PATCH/PAccounts/{UserID}/red/{FormID}/&amp;lt;Атрибут для изменения&amp;gt;&lt;/span&gt;" style="edgeLabel;html=1;align=center;verticalAlign=middle;resizable=0;points=[];" parent="1" connectable="0" vertex="1">
          <mxGeometry x="2320.0019715295075" y="929.9951945827268" as="geometry" />
        </mxCell>
        <mxCell id="jX7xDOMbAJI4A2eP9L53-40" value="&lt;span style=&quot;font-size: 20px;&quot;&gt;Эндпоинт:&lt;br&gt;POST/PAccounts/{UserID}/AuthorForms&lt;/span&gt;" style="edgeLabel;html=1;align=center;verticalAlign=middle;resizable=0;points=[];" parent="1" connectable="0" vertex="1">
          <mxGeometry x="630.0019715295073" y="1239.9951945827268" as="geometry" />
        </mxCell>
        <mxCell id="jX7xDOMbAJI4A2eP9L53-42" value="&lt;span style=&quot;font-size: 20px;&quot;&gt;Эндпоинт:&lt;br&gt;POST/likedforms/{UserID}/{FormID}&lt;/span&gt;" style="edgeLabel;html=1;align=center;verticalAlign=middle;resizable=0;points=[];" parent="1" connectable="0" vertex="1">
          <mxGeometry x="520.0019715295073" y="639.9951945827268" as="geometry">
            <mxPoint x="16" y="-15" as="offset" />
          </mxGeometry>
        </mxCell>
        <mxCell id="jX7xDOMbAJI4A2eP9L53-45" value="&lt;span style=&quot;font-size: 20px;&quot;&gt;Эндпоинт:&lt;br&gt;POST/unlikedforms/{UserID}/{FormID}&lt;/span&gt;" style="edgeLabel;html=1;align=center;verticalAlign=middle;resizable=0;points=[];" parent="1" connectable="0" vertex="1">
          <mxGeometry x="-149.99802847049273" y="514.9951945827268" as="geometry">
            <mxPoint x="16" y="-15" as="offset" />
          </mxGeometry>
        </mxCell>
        <mxCell id="jX7xDOMbAJI4A2eP9L53-47" value="&lt;span style=&quot;font-size: 20px;&quot;&gt;Эндпоинт:&lt;br&gt;GET/forms/{UserID}&lt;/span&gt;" style="edgeLabel;html=1;align=center;verticalAlign=middle;resizable=0;points=[];" parent="1" connectable="0" vertex="1">
          <mxGeometry x="1310.0019715295073" y="1189.9951945827268" as="geometry" />
        </mxCell>
        <mxCell id="jX7xDOMbAJI4A2eP9L53-49" value="Родной язык" style="rounded=0;whiteSpace=wrap;html=1;" parent="1" vertex="1">
          <mxGeometry x="1717" y="975" width="83" height="60" as="geometry" />
        </mxCell>
      </root>
    </mxGraphModel>
  </diagram>
</mxfile>
